HIERARCHY
ROOT Hips
{
	OFFSET 0.00000 0.00000 0.00000
	CHANNELS 6 Xposition Yposition Zposition Zrotation Yrotation Xrotation 
	JOINT LHipJoint
	{
		OFFSET 0 0 0
		CHANNELS 3 Zrotation Yrotation Xrotation
		JOINT LeftUpLeg
		{
			OFFSET 1.34019 -1.87553 0.90315
			CHANNELS 3 Zrotation Yrotation Xrotation
			JOINT LeftLeg
			{
				OFFSET 2.55316 -7.01474 0.00000
				CHANNELS 3 Zrotation Yrotation Xrotation
				JOINT LeftFoot
				{
					OFFSET 2.64657 -7.27139 0.00000
					CHANNELS 3 Zrotation Yrotation Xrotation
					JOINT LeftToeBase
					{
						OFFSET 0.24207 -0.66507 2.14489
						CHANNELS 3 Zrotation Yrotation Xrotation
						End Site
						{
							OFFSET 0.00000 -0.00000 1.12451
						}
					}
				}
			}
		}
	}
	JOINT RHipJoint
	{
		OFFSET 0 0 0
		CHANNELS 3 Zrotation Yrotation Xrotation
		JOINT RightUpLeg
		{
			OFFSET -1.28320 -1.87553 0.90315
			CHANNELS 3 Zrotation Yrotation Xrotation
			JOINT RightLeg
			{
				OFFSET -2.60484 -7.15674 0.00000
				CHANNELS 3 Zrotation Yrotation Xrotation
				JOINT RightFoot
				{
					OFFSET -2.60296 -7.15159 0.00000
					CHANNELS 3 Zrotation Yrotation Xrotation
					JOINT RightToeBase
					{
						OFFSET -0.31082 -0.85398 2.28998
						CHANNELS 3 Zrotation Yrotation Xrotation
						End Site
						{
							OFFSET -0.00000 -0.00000 1.21611
						}
					}
				}
			}
		}
	}
	JOINT LowerBack
	{
		OFFSET 0 0 0
		CHANNELS 3 Zrotation Yrotation Xrotation
		JOINT Spine
		{
			OFFSET -0.00160 2.05581 -0.15156
			CHANNELS 3 Zrotation Yrotation Xrotation
			JOINT Spine1
			{
				OFFSET 0.04594 2.06326 -0.01617
				CHANNELS 3 Zrotation Yrotation Xrotation
				JOINT Neck
				{
					OFFSET 0 0 0
					CHANNELS 3 Zrotation Yrotation Xrotation
					JOINT Neck1
					{
						OFFSET 0.03753 1.73883 0.26751
						CHANNELS 3 Zrotation Yrotation Xrotation
						JOINT Head
						{
							OFFSET -0.09795 1.76129 -0.31794
							CHANNELS 3 Zrotation Yrotation Xrotation
							End Site
							{
								OFFSET -0.03611 1.79987 -0.13846
							}
						}
					}
				}
				JOINT LeftShoulder
				{
					OFFSET 0 0 0
					CHANNELS 3 Zrotation Yrotation Xrotation
					JOINT LeftArm
					{
						OFFSET 3.30667 1.29205 -0.22445
						CHANNELS 3 Zrotation Yrotation Xrotation
						JOINT LeftForeArm
						{
							OFFSET 4.92785 -0.00000 -0.00000
							CHANNELS 3 Zrotation Yrotation Xrotation
							JOINT LeftHand
							{
								OFFSET 3.44052 -0.00000 0.00000
								CHANNELS 3 Zrotation Yrotation Xrotation
								JOINT LeftFingerBase
								{
									OFFSET 0 0 0
									CHANNELS 3 Zrotation Yrotation Xrotation
									JOINT LeftHandIndex1
									{
										OFFSET 0.65433 -0.00000 0.00000
										CHANNELS 3 Zrotation Yrotation Xrotation
										End Site
										{
											OFFSET 0.52753 -0.00000 0.00000
										}
									}
								}
								JOINT LThumb
								{
									OFFSET 0 0 0
									CHANNELS 3 Zrotation Yrotation Xrotation
									End Site
									{
										OFFSET 0.53559 -0.00000 0.53559
									}
								}
							}
						}
					}
				}
				JOINT RightShoulder
				{
					OFFSET 0 0 0
					CHANNELS 3 Zrotation Yrotation Xrotation
					JOINT RightArm
					{
						OFFSET -3.20032 1.49783 -0.27688
						CHANNELS 3 Zrotation Yrotation Xrotation
						JOINT RightForeArm
						{
							OFFSET -5.09181 -0.00000 -0.00000
							CHANNELS 3 Zrotation Yrotation Xrotation
							JOINT RightHand
							{
								OFFSET -3.49865 -0.00000 -0.00000
								CHANNELS 3 Zrotation Yrotation Xrotation
								JOINT RightFingerBase
								{
									OFFSET 0 0 0
									CHANNELS 3 Zrotation Yrotation Xrotation
									JOINT RightHandIndex1
									{
										OFFSET -0.66641 -0.00000 0.00000
										CHANNELS 3 Zrotation Yrotation Xrotation
										End Site
										{
											OFFSET -0.53728 -0.00000 0.00000
										}
									}
								}
								JOINT RThumb
								{
									OFFSET 0 0 0
									CHANNELS 3 Zrotation Yrotation Xrotation
									End Site
									{
										OFFSET -0.54548 -0.00000 0.54548
									}
								}
							}
						}
					}
				}
			}
		}
	}
}
MOTION
Frames: 7
Frame Time: .0083333
-2.1996 17.5872 -7.4311 -1.0919 13.8502 1.6793 0.0000 0.0000 0.0000 -5.2062 -11.6614 7.7292 2.6512 10.1078 29.3267 -0.0174 -5.6167 -3.3904 1.9525 -8.7665 -25.0675 0.0000 0.0000 0.0000 23.4889 -2.7778 -34.5017 -4.0379 -12.2107 36.4815 0.9859 -17.8631 -11.7028 -0.0321 -1.1562 3.1787 -14.4599 -2.7274 19.1699 -6.9871 -7.0566 2.5568 2.1621 -3.0529 -7.1047 8.4843 0.8418 -19.6941 4.2886 -2.3653 18.7475 -0.2205 0.0050 9.1780 0.0000 0.0000 0.0000 -20.3943 3.2118 -34.9042 11.9396 -19.7139 -2.0819 -0.0000 -0.0000 11.5406 10.9341 1.7818 0.3442 -7.1250 0.0000 -0.0000 -12.4858 31.6341 4.1691 0.0000 0.0000 0.0000 -3.5198 -18.3473 -58.3255 -14.6134 23.6047 -3.0694 0.0000 0.0000 10.9350 -18.3353 8.9438 -2.9494 7.1250 -0.0000 -0.0000 6.1618 -20.5910 3.6218
-2.2542 17.5822 -7.3301 -1.1766 14.0547 1.6449 0.0000 0.0000 0.0000 -4.9739 -12.0270 7.7079 2.7398 10.2614 29.8274 -0.0419 -5.6906 -2.5962 1.9371 -8.7339 -24.9664 0.0000 0.0000 0.0000 23.7830 -2.8412 -34.4034 -4.1364 -12.3397 36.9445 0.9702 -17.8838 -12.2894 -0.0317 -1.1494 3.1601 -14.4069 -2.7603 19.3075 -7.0302 -7.1143 2.5830 2.1091 -3.0786 -7.1554 8.3132 0.7602 -19.6741 4.4876 -2.4744 18.8091 -0.1392 -0.0330 9.1993 0.0000 0.0000 0.0000 -20.5560 2.9905 -34.8955 11.9320 -19.7027 -2.0793 -0.0000 -0.0000 11.5805 10.9607 1.7366 0.3363 -7.1250 0.0000 -0.0000 -12.4586 31.5898 4.1731 0.0000 0.0000 0.0000 -3.6107 -18.3703 -58.2499 -14.6128 23.6039 -3.0692 0.0000 0.0000 10.9796 -18.2458 9.0540 -2.9698 7.1250 -0.0000 -0.0000 6.2256 -20.4811 3.6752
-2.3037 17.5779 -7.2317 -1.2601 14.2201 1.6328 0.0000 0.0000 0.0000 -4.7628 -12.3459 7.6693 2.8237 10.4040 30.2953 -0.0629 -5.7441 -1.7837 1.9117 -8.6797 -24.7984 0.0000 0.0000 0.0000 24.0562 -2.8754 -34.3071 -4.2279 -12.4577 37.3709 0.9496 -17.8795 -12.8574 -0.0291 -1.1006 3.0257 -14.3065 -2.7900 19.4180 -7.0676 -7.1538 2.6017 2.0318 -3.0970 -7.2071 8.1857 0.6915 -19.6719 4.6224 -2.5678 18.8906 -0.0848 -0.0665 9.2297 0.0000 0.0000 0.0000 -20.6930 2.7667 -34.8359 11.9404 -19.7152 -2.0821 -0.0000 -0.0000 11.5967 11.0006 1.6491 0.3205 -7.1250 0.0000 -0.0000 -12.4150 31.5038 4.1842 0.0000 0.0000 0.0000 -3.6726 -18.3808 -58.2141 -14.6135 23.6049 -3.0695 0.0000 0.0000 11.0101 -18.1989 9.1439 -2.9907 7.1250 -0.0000 -0.0000 6.2587 -20.3902 3.7079
-2.3480 17.5745 -7.1354 -1.3281 14.3425 1.6435 0.0000 0.0000 0.0000 -4.5870 -12.6093 7.6257 2.9005 10.5323 30.7182 -0.0791 -5.7617 -0.9815 1.8777 -8.6065 -24.5719 0.0000 0.0000 0.0000 24.2968 -2.9011 -34.2225 -4.3152 -12.5685 37.7739 0.9220 -17.8302 -13.3934 -0.0253 -1.0271 2.8235 -14.1800 -2.8182 19.4913 -7.1018 -7.1783 2.6220 1.9383 -3.1105 -7.2416 8.1260 0.6492 -19.7338 4.6782 -2.6378 19.0164 -0.0651 -0.0899 9.2856 -0.0000 -0.0000 0.0000 -20.8066 2.5556 -34.7436 11.9622 -19.7479 -2.0895 -0.0000 -0.0000 11.5996 11.0585 1.5295 0.2989 -7.1250 0.0000 -0.0000 -12.3530 31.3863 4.1981 -0.0000 -0.0000 0.0000 -3.7086 -18.3609 -58.2356 -14.6120 23.6028 -3.0689 0.0000 0.0000 11.0425 -18.1554 9.2577 -3.0198 7.1250 -0.0000 -0.0000 6.2894 -20.2741 3.7428
-2.3873 17.5723 -7.0420 -1.3586 14.4338 1.6823 0.0000 0.0000 0.0000 -4.4666 -12.8272 7.5790 2.9690 10.6447 31.0909 -0.0901 -5.7368 -0.2028 1.8361 -8.5160 -24.2926 0.0000 0.0000 0.0000 24.4848 -2.9439 -34.1661 -4.4009 -12.6756 38.1660 0.8864 -17.7245 -13.8906 -0.0212 -0.9402 2.5842 -14.0450 -2.8461 19.5511 -7.1386 -7.2000 2.6332 1.8362 -3.1226 -7.2808 8.1085 0.6257 -19.7818 4.6784 -2.6772 19.1031 -0.0674 -0.1044 9.3242 0.0000 -0.0000 0.0000 -20.8895 2.3587 -34.6381 11.9869 -19.7849 -2.0978 -0.0000 -0.0000 11.6038 11.1254 1.3962 0.2745 -7.1250 0.0000 -0.0000 -12.2824 31.2553 4.2127 0.0000 -0.0000 0.0000 -3.7069 -18.3461 -58.1956 -14.6252 23.6213 -3.0742 0.0000 0.0000 10.9586 -18.1560 9.2499 -3.0174 7.1250 -0.0000 -0.0000 6.2890 -20.2822 3.7414
-2.4223 17.5711 -6.9505 -1.3431 14.4929 1.7391 0.0000 0.0000 0.0000 -4.4072 -12.9869 7.5452 3.0290 10.7418 31.4139 -0.0961 -5.6795 0.5210 1.7919 -8.4186 -23.9928 0.0000 0.0000 0.0000 24.6126 -3.0068 -34.1218 -4.4856 -12.7800 38.5505 0.8427 -17.5628 -14.3566 -0.0170 -0.8430 2.3170 -13.9253 -2.8719 19.5822 -7.1781 -7.2152 2.6522 1.7354 -3.1334 -7.2950 8.0979 0.6110 -19.8357 4.6565 -2.7000 19.1641 -0.0762 -0.1144 9.3544 -0.0000 -0.0000 0.0000 -20.9454 2.1860 -34.5317 12.0172 -19.8305 -2.1081 -0.0000 -0.0000 11.6085 11.1719 1.2580 0.2484 -7.1250 0.0000 -0.0000 -12.2273 31.1188 4.2340 -0.0000 -0.0000 0.0000 -3.6725 -18.3000 -58.1828 -14.6371 23.6382 -3.0790 0.0000 0.0000 10.8960 -18.2222 9.1275 -2.9895 7.1250 -0.0000 -0.0000 6.2422 -20.4059 3.6957
-2.4533 17.5708 -6.8617 -1.2598 14.5401 1.8251 0.0000 0.0000 0.0000 -4.4242 -13.1030 7.5088 3.0808 10.8247 31.6908 -0.0983 -5.6076 1.1964 1.7441 -8.3113 -23.6636 0.0000 0.0000 0.0000 24.6581 -3.1021 -34.1050 -4.5692 -12.8816 38.9270 0.7924 -17.3512 -14.7888 -0.0131 -0.7391 2.0311 -13.8418 -2.8984 19.6088 -7.2189 -7.2394 2.6631 1.6542 -3.1469 -7.3105 8.0757 0.6002 -19.8540 4.6171 -2.7020 19.1757 -0.0865 -0.1207 9.3607 -0.0000 0.0000 0.0000 -20.9826 2.0401 -34.4251 12.0477 -19.8761 -2.1185 -0.0000 -0.0000 11.6001 11.2254 1.1675 0.2317 -7.1250 0.0000 -0.0000 -12.1734 31.0299 4.2412 -0.0000 0.0000 0.0000 -3.6243 -18.2469 -58.0937 -14.6559 23.6646 -3.0865 0.0000 0.0000 10.7525 -18.2609 8.9964 -2.9537 7.1250 -0.0000 -0.0000 6.2150 -20.5404 3.6606
